{
    "asset" : {
        "generator" : "Khronos glTF Blender I/O v3.2.40",
        "version" : "2.0"
    },
    "scene" : 0,
    "scenes" : [
        {
            "name" : "Scene",
            "nodes" : [
                0,
                1,
                2
            ]
        }
    ],
    "nodes" : [
        {
            "mesh" : 0,
            "name" : "Cylinder.024",
            "rotation" : [
                0,
                0,
                -0.7071068286895752,
                0.7071068286895752
            ],
            "scale" : [
                0.05000000074505806,
                1,
                0.05000000074505806
            ],
            "translation" : [
                3,
                2,
                0
            ]
        },
        {
            "mesh" : 1,
            "name" : "Cylinder.023",
            "rotation" : [
                0,
                0,
                -0.7071068286895752,
                0.7071068286895752
            ],
            "scale" : [
                0.05999999865889549,
                1,
                0.05000000074505806
            ],
            "translation" : [
                4,
                0,
                0.05000000074505806
            ]
        },
        {
            "mesh" : 2,
            "name" : "Cylinder.022",
            "rotation" : [
                0,
                0,
                -0.7071068286895752,
                0.7071068286895752
            ],
            "scale" : [
                0.05999999865889549,
                1,
                0.05000000074505806
            ],
            "translation" : [
                4,
                0,
                -0.05000000074505806
            ]
        }
    ],
    "meshes" : [
        {
            "name" : "Cylinder.025",
            "primitives" : [
                {
                    "attributes" : {
                        "POSITION" : 0,
                        "NORMAL" : 1,
                        "TEXCOORD_0" : 2
                    },
                    "indices" : 3
                }
            ]
        },
        {
            "name" : "Cylinder.002",
            "primitives" : [
                {
                    "attributes" : {
                        "POSITION" : 4,
                        "NORMAL" : 5,
                        "TEXCOORD_0" : 6
                    },
                    "indices" : 7
                }
            ]
        },
        {
            "name" : "Cylinder.001",
            "primitives" : [
                {
                    "attributes" : {
                        "POSITION" : 8,
                        "NORMAL" : 9,
                        "TEXCOORD_0" : 10
                    },
                    "indices" : 7
                }
            ]
        }
    ],
    "accessors" : [
        {
            "bufferView" : 0,
            "componentType" : 5126,
            "count" : 192,
            "max" : [
                1,
                1,
                1
            ],
            "min" : [
                -1,
                -1,
                -1
            ],
            "type" : "VEC3"
        },
        {
            "bufferView" : 1,
            "componentType" : 5126,
            "count" : 192,
            "type" : "VEC3"
        },
        {
            "bufferView" : 2,
            "componentType" : 5126,
            "count" : 192,
            "type" : "VEC2"
        },
        {
            "bufferView" : 3,
            "componentType" : 5123,
            "count" : 372,
            "type" : "SCALAR"
        },
        {
            "bufferView" : 4,
            "componentType" : 5126,
            "count" : 4205,
            "max" : [
                1,
                1.1100010871887207,
                1.000002384185791
            ],
            "min" : [
                -33.600067138671875,
                -1.0156192779541016,
                -1.0000007152557373
            ],
            "type" : "VEC3"
        },
        {
            "bufferView" : 5,
            "componentType" : 5126,
            "count" : 4205,
            "type" : "VEC3"
        },
        {
            "bufferView" : 6,
            "componentType" : 5126,
            "count" : 4205,
            "type" : "VEC2"
        },
        {
            "bufferView" : 7,
            "componentType" : 5123,
            "count" : 8052,
            "type" : "SCALAR"
        },
        {
            "bufferView" : 8,
            "componentType" : 5126,
            "count" : 4205,
            "max" : [
                1,
                1.1100010871887207,
                1.000002384185791
            ],
            "min" : [
                -33.600067138671875,
                -1.0156192779541016,
                -1.0000007152557373
            ],
            "type" : "VEC3"
        },
        {
            "bufferView" : 9,
            "componentType" : 5126,
            "count" : 4205,
            "type" : "VEC3"
        },
        {
            "bufferView" : 10,
            "componentType" : 5126,
            "count" : 4205,
            "type" : "VEC2"
        }
    ],
    "bufferViews" : [
        {
            "buffer" : 0,
            "byteLength" : 2304,
            "byteOffset" : 0
        },
        {
            "buffer" : 0,
            "byteLength" : 2304,
            "byteOffset" : 2304
        },
        {
            "buffer" : 0,
            "byteLength" : 1536,
            "byteOffset" : 4608
        },
        {
            "buffer" : 0,
            "byteLength" : 744,
            "byteOffset" : 6144
        },
        {
            "buffer" : 0,
            "byteLength" : 50460,
            "byteOffset" : 6888
        },
        {
            "buffer" : 0,
            "byteLength" : 50460,
            "byteOffset" : 57348
        },
        {
            "buffer" : 0,
            "byteLength" : 33640,
            "byteOffset" : 107808
        },
        {
            "buffer" : 0,
            "byteLength" : 16104,
            "byteOffset" : 141448
        },
        {
            "buffer" : 0,
            "byteLength" : 50460,
            "byteOffset" : 157552
        },
        {
            "buffer" : 0,
            "byteLength" : 50460,
            "byteOffset" : 208012
        },
        {
            "buffer" : 0,
            "byteLength" : 33640,
            "byteOffset" : 258472
        }
    ],
    "buffers" : [
        {
            "byteLength" : 292112,
            "uri" : "data:application/octet-stream;base64,"
        }
    ]
}
